<svg xmlns="http://www.w3.org/2000/svg" xmlns:xlink="http://www.w3.org/1999/xlink" viewBox="0 0 112.85 115.03"><defs><style>.cls-1{fill:url(#linear-gradient);}</style><linearGradient id="linear-gradient" x1="1.67" y1="112.27" x2="111.18" y2="2.76" gradientUnits="userSpaceOnUse"><stop offset="0" stop-color="#6cccdc"/><stop offset="1" stop-color="#161563"/></linearGradient></defs><g id="Layer_2" data-name="Layer 2"><g id="Layer_2-2" data-name="Layer 2"><path class="cls-1" d="M0,7.55v99.93A7.55,7.55,0,0,0,7.55,115H105.3a7.55,7.55,0,0,0,7.55-7.55V7.55A7.55,7.55,0,0,0,105.3,0H7.55A7.55,7.55,0,0,0,0,7.55ZM85.9,66.22,35.65,91.35a9.74,9.74,0,0,1-14.09-8.71h0a.92.92,0,0,1,.73-.9A3.47,3.47,0,0,0,25,78.35V63.86H36.79A3.19,3.19,0,0,0,40,60.67h0a3.19,3.19,0,0,0-3.19-3.2H25V45.85H40.84A3.19,3.19,0,0,0,44,42.66v-.19a3.19,3.19,0,0,0-3.19-3.19H21.56V32.39a9.74,9.74,0,0,1,14.09-8.71L85.9,48.81A9.73,9.73,0,0,1,85.9,66.22Z"/></g></g></svg>