<svg xmlns="http://www.w3.org/2000/svg" xmlns:xlink="http://www.w3.org/1999/xlink" viewBox="0 0 510.76 171.32"><defs><style>.cls-1{fill:url(#linear-gradient);}.cls-2{font-size:150.23px;fill:#fff;font-family:FranklinGothic-Medium, Franklin Gothic Medium;font-weight:500;}.cls-3{letter-spacing:-0.01em;}</style><linearGradient id="linear-gradient" x1="1.61" y1="122.59" x2="107.45" y2="16.75" gradientUnits="userSpaceOnUse"><stop offset="0" stop-color="#6cccdc"/><stop offset="1" stop-color="#161563"/></linearGradient></defs><g id="Layer_2" data-name="Layer 2"><g id="Layer_1-2" data-name="Layer 1"><path class="cls-1" d="M0,21.38V118a7.3,7.3,0,0,0,7.3,7.3h94.46a7.3,7.3,0,0,0,7.3-7.3V21.38a7.3,7.3,0,0,0-7.3-7.3H7.3A7.3,7.3,0,0,0,0,21.38Zm83,56.7L34.46,102.37A9.41,9.41,0,0,1,20.84,94h0a.88.88,0,0,1,.7-.87,3.35,3.35,0,0,0,2.64-3.27v-14H35.55a3.08,3.08,0,0,0,3.09-3.08h0a3.09,3.09,0,0,0-3.09-3.09H24.18V58.39H39.47a3.09,3.09,0,0,0,3.09-3.08v-.18A3.09,3.09,0,0,0,39.47,52H20.84V45.39A9.41,9.41,0,0,1,34.46,37L83,61.25A9.4,9.4,0,0,1,83,78.08Z"/><text class="cls-2" transform="translate(131.36 125.26)"><tspan class="cls-3">f</tspan><tspan x="46.58" y="0">ilmer</tspan></text></g></g></svg>