<svg xmlns="http://www.w3.org/2000/svg" viewBox="0 0 517 518.35"><defs><style>.cls-1{fill:#ffd322;}.cls-2{fill:#ffe377;}.cls-3{fill:#464646;}.cls-4{fill:#2d2d2d;}.cls-5{fill:#bb5f19;}.cls-6{fill:#8e4813;}.cls-7{fill:#0bb769;}.cls-8{fill:#2fe090;}</style></defs><g id="Layer_2" data-name="Layer 2"><g id="Layer_3" data-name="Layer 3"><path class="cls-1" d="M257,.36h1c143,0,259,116,259,259s-116,259-259,259h-1Z"/><path class="cls-2" d="M260,0h-1C116,0,0,116,0,259S116,518,259,518h1Z"/><path class="cls-3" d="M259,238A150.5,150.5,0,0,0,109.07,384H259Z"/><path class="cls-4" d="M259,238A150.5,150.5,0,0,1,408.93,384H259Z"/><path class="cls-5" d="M132.14,115.34c.74.38,1.64.82,2.5,1.3q46.85,26.27,93.69,52.5c2.48,1.39,3.81,2.14.73,4.7Q189,207.25,149.1,241c-3,2.55-4.73,3-7.31-.58A165.74,165.74,0,0,0,129,225.09c-2.64-2.83-2.73-4.41.4-7C144.7,205.53,159.82,192.71,175,180c4.48-3.75,4.52-3.77-.73-6.72-18-10.11-36-20.26-54.06-30.23-2.93-1.62-3.76-2.89-1.84-6,3.84-6.23,7.24-12.74,10.87-19.1C129.88,116.84,130.22,115.33,132.14,115.34Z"/><path class="cls-6" d="M387.07,115.34c-.75.38-1.64.82-2.51,1.3q-46.83,26.27-93.69,52.5c-2.48,1.39-3.8,2.14-.73,4.7q40.13,33.41,80,67.15c3,2.55,4.72,3,7.31-.58a164.07,164.07,0,0,1,12.8-15.32c2.64-2.83,2.74-4.41-.4-7-15.32-12.57-30.43-25.39-45.63-38.11-4.48-3.75-4.53-3.77.72-6.72,18-10.11,36-20.26,54.06-30.23,2.94-1.62,3.77-2.89,1.84-6-3.84-6.23-7.23-12.74-10.87-19.1C389.33,116.84,389,115.33,387.07,115.34Z"/><path class="cls-7" d="M399.94,486.1c-.09-3.12-.3-6.37-3.07-8.6a3.77,3.77,0,0,1-.5-.86c-7.41-28.5-25.25-46.75-53.7-54.44-2.35-.63-2.78-1.73-2.76-3.8.11-12.12.14-24.24.2-36.36,1.53-1.52,1.78-3.45,1.89-5.5a55.1,55.1,0,0,0-1.08-11.39c-3.67-23.46-24.42-42.67-48.11-45.2q-17.12-1.53-33.81-1.65V518H398c1.79-1.58,2.06-3.68,2.07-5.91C400.05,503.42,400.18,494.76,399.94,486.1Z"/><path class="cls-8" d="M118.06,486.1c.09-3.12.3-6.37,3.07-8.6a3.77,3.77,0,0,0,.5-.86c7.41-28.5,25.25-46.75,53.7-54.44,2.35-.63,2.78-1.73,2.76-3.8-.11-12.12-.14-24.24-.2-36.36-1.53-1.52-1.78-3.45-1.89-5.5a55.1,55.1,0,0,1,1.08-11.39c3.67-23.46,24.42-42.67,48.11-45.2q17.12-1.53,33.81-1.65V518H120.05c-1.79-1.58-2.06-3.68-2.07-5.91C118,503.42,117.82,494.76,118.06,486.1Z"/></g></g></svg>