<svg xmlns="http://www.w3.org/2000/svg" viewBox="0 0 295.19 365.08"><defs><style>.cls-1{fill:#fff;}</style></defs><g id="Layer_2" data-name="Layer 2"><g id="Layer_2-2" data-name="Layer 2"><path class="cls-1" d="M126.12,230.61c55.84,18.84,119.83-1.4,151.29-51.1,35.69-56.38,16-129.27-44.06-162.8S95.73,1.7,60,58.09C29.1,107,39.85,168.19,82.34,205.49L2.9,331C-2.92,340.17.3,352,10.07,357.51l8.69,4.85c9.77,5.46,22.41,2.44,28.23-6.74ZM91.87,75.87C117.11,36,172,22.9,214.42,46.61s56.39,75.25,31.15,115.12c-24.24,38.3-75.79,51.8-117.44,31.8-.58-.4-1.11-.85-1.74-1.21l-8.68-4.85c-.35-.19-.73-.3-1.09-.47C79.27,161.87,68,113.65,91.87,75.87Z"/></g></g></svg>