<svg xmlns="http://www.w3.org/2000/svg" viewBox="0 0 362.82 362.7"><defs><style>.cls-1{fill:#fff;opacity:0.2;}</style></defs><g id="Layer_2" data-name="Layer 2"><g id="Layer_2-2" data-name="Layer 2"><path class="cls-1" d="M351.12,290.89,241.6,181.37,351,72c15.79-16.23,15.24-42.1-1.12-58.61-16.68-16.83-42.68-17.75-59-1.47L181.5,121.26,71.93,11.7C55.6-4.58,29.6-3.67,12.92,13.17-3.44,29.68-4,55.55,11.8,71.78L121.39,181.37,11.69,291.07c-16.27,16.33-15.36,42.32,1.48,59,16.51,16.36,42.38,16.92,58.61,1.12L181.5,241.47,291,351c16.23,15.79,42.1,15.24,58.61-1.12C366.48,333.22,367.4,307.22,351.12,290.89Z"/></g></g></svg>