<?xml version="1.0" standalone="no"?>
<!DOCTYPE svg PUBLIC "-//W3C//DTD SVG 20010904//EN"
 "http://www.w3.org/TR/2001/REC-SVG-20010904/DTD/svg10.dtd">
<svg version="1.0" xmlns="http://www.w3.org/2000/svg"
 width="900.000000pt" height="1350.000000pt" viewBox="0 0 900.000000 1350.000000"
 preserveAspectRatio="xMidYMid meet">
<metadata>
Created by potrace 1.10, written by Peter Selinger 2001-2011
</metadata>
<g transform="translate(0.000000,1350.000000) scale(0.100000,-0.100000)"
fill="#cccccc" stroke="none">
<path d="M3792 8434 l-22 -15 0 -390 0 -389 49 0 c29 0 53 5 58 12 11 19 4
516 -9 576 -8 37 -8 56 -1 63 18 18 52 0 59 -29 6 -28 100 -222 159 -327 18
-33 45 -82 60 -110 90 -171 102 -185 166 -185 37 0 51 4 58 19 6 10 10 72 9
137 -1 66 -1 232 1 369 1 138 0 258 -4 268 -5 12 -18 17 -50 17 -36 0 -45 -4
-50 -21 -7 -22 1 -426 11 -540 5 -53 3 -67 -9 -72 -16 -6 -57 34 -57 56 0 13
-107 227 -148 297 -11 19 -39 71 -62 115 -65 125 -66 126 -96 146 -35 23 -92
25 -122 3z"/>
<path d="M4696 8218 c-55 -30 -101 -80 -126 -135 -30 -67 -33 -230 -5 -294 19
-45 81 -119 99 -119 5 0 18 -8 28 -17 28 -26 199 -23 248 3 71 39 88 56 120
116 32 59 33 66 33 172 0 97 -3 117 -24 156 -29 57 -62 90 -117 118 -60 31
-199 31 -256 0z m214 -85 c14 -9 32 -26 40 -37 22 -30 49 -116 49 -156 0 -56
-32 -139 -68 -176 -33 -33 -36 -34 -111 -34 -74 0 -79 2 -112 33 -86 81 -73
312 21 369 37 23 149 23 181 1z"/>
<path d="M2903 6888 c-9 -11 -13 -110 -13 -386 -1 -205 2 -377 5 -382 3 -6 27
-10 52 -10 l45 0 -3 153 -3 152 64 -3 c110 -5 234 42 275 104 27 40 55 122 54
159 -1 69 -47 143 -118 190 -37 25 -49 27 -193 32 -127 5 -155 3 -165 -9z
m249 -74 c84 -24 113 -63 113 -153 0 -75 -23 -117 -79 -145 -38 -19 -183 -28
-194 -12 -4 6 -6 82 -4 169 l4 157 51 0 c28 0 77 -7 109 -16z"/>
<path d="M4683 6828 c-4 -7 -8 -42 -8 -78 l0 -65 -45 0 c-43 0 -45 -1 -48 -32
l-3 -33 50 0 c34 0 51 -4 52 -12 0 -7 0 -85 0 -173 -1 -192 12 -266 55 -300
33 -26 89 -36 154 -26 45 6 45 6 48 49 3 46 -2 49 -54 30 -25 -9 -39 -8 -62 1
-41 17 -50 60 -53 261 l-3 165 85 0 84 0 3 39 3 38 -83 -3 -83 -4 2 70 c2 46
-1 72 -10 77 -19 12 -75 9 -84 -4z"/>
<path d="M3700 6698 c-19 -5 -48 -12 -64 -15 -46 -9 -128 -100 -148 -165 -36
-111 -17 -250 45 -331 44 -58 105 -81 214 -80 72 0 98 4 111 17 10 9 23 16 28
16 20 0 72 58 98 109 23 47 26 64 26 157 0 84 -4 114 -20 149 -32 69 -78 110
-156 134 -74 23 -82 24 -134 9z m146 -103 c50 -38 74 -102 74 -197 0 -138 -66
-218 -180 -218 -81 0 -126 36 -162 130 -36 92 -9 219 59 277 35 30 44 33 107
33 59 0 74 -4 102 -25z"/>
<path d="M4267 6691 c-27 -10 -63 -32 -80 -50 -30 -29 -32 -36 -32 -100 0 -81
18 -107 95 -142 25 -12 58 -27 73 -35 16 -8 34 -14 41 -14 24 0 66 -55 66 -86
0 -48 -60 -94 -123 -94 -35 0 -121 33 -132 50 -3 6 -15 10 -26 10 -15 0 -19
-7 -19 -39 0 -34 4 -42 38 -61 31 -19 52 -23 134 -23 74 -1 101 3 115 15 10 8
26 18 35 21 32 11 68 83 68 135 0 76 -49 119 -204 178 -49 19 -86 60 -86 96 0
9 11 30 24 45 22 25 30 28 88 28 44 0 73 -6 91 -18 46 -30 62 -22 57 28 -2 28
-18 40 -74 59 -61 20 -87 19 -149 -3z"/>
<path d="M5215 6689 c-75 -25 -134 -84 -160 -160 -52 -160 -15 -314 94 -386
54 -36 56 -37 160 -37 164 0 237 38 201 104 -8 16 -15 19 -24 11 -22 -18 -137
-51 -178 -51 -76 0 -143 51 -173 131 -32 86 -37 84 181 80 172 -3 192 -1 209
15 38 39 -11 219 -71 259 -33 21 -131 55 -158 54 -12 0 -48 -9 -81 -20z m174
-91 c36 -29 65 -91 57 -123 -6 -23 -8 -24 -149 -27 -78 -2 -147 -2 -154 0 -20
6 -23 30 -8 59 8 15 15 32 15 37 0 15 69 74 93 80 46 10 118 -3 146 -26z"/>
<path d="M5892 6691 c-18 -10 -45 -35 -60 -55 -37 -49 -52 -46 -52 8 0 36 -4
46 -20 51 -27 9 -74 -21 -66 -42 3 -8 6 -134 6 -279 l0 -265 48 3 47 3 1 183
c1 100 5 193 8 206 8 32 102 116 130 116 12 0 32 -7 44 -16 12 -8 27 -12 32
-9 15 9 12 81 -4 94 -25 21 -79 22 -114 2z"/>
<path d="M5841 5253 c4 -186 0 -196 -53 -144 -42 41 -88 55 -160 47 -68 -7
-126 -44 -155 -100 -23 -42 -52 -153 -53 -196 0 -43 35 -176 52 -199 37 -50
66 -72 115 -87 73 -23 147 -7 199 44 40 39 66 37 62 -5 -2 -21 2 -29 23 -37
61 -21 59 -38 59 424 l0 420 -46 0 -46 0 3 -167z m-104 -189 c18 -8 49 -31 68
-51 l35 -36 0 -111 0 -112 -42 -40 c-61 -57 -92 -74 -136 -74 -33 0 -47 7 -79
39 -32 32 -41 50 -50 98 -24 139 10 256 86 298 28 16 67 12 118 -11z"/>
<path d="M2912 5348 c-15 -19 -14 -760 1 -770 19 -12 74 -9 84 5 6 7 6 71 1
162 -4 83 -6 156 -3 162 3 10 41 13 146 12 128 -1 144 0 156 17 8 10 12 28 11
39 -3 19 -11 20 -159 23 l-157 2 0 135 c0 161 -17 148 185 143 l138 -3 3 43 3
42 -199 0 c-148 0 -202 -3 -210 -12z"/>
<path d="M3616 5153 c-54 -9 -120 -61 -154 -122 -21 -36 -42 -126 -42 -176 0
-49 21 -136 42 -175 16 -31 45 -61 78 -81 34 -21 142 -43 177 -36 15 3 45 10
66 14 45 10 125 77 148 124 28 57 46 159 37 204 -5 22 -11 56 -14 75 -8 49
-51 109 -103 144 -37 24 -54 29 -124 31 -45 2 -95 1 -111 -2z m163 -87 c21
-14 49 -40 62 -58 21 -29 24 -43 24 -143 0 -106 -2 -112 -29 -147 -43 -57 -84
-78 -150 -78 -55 0 -59 2 -106 49 -43 43 -49 54 -55 106 -12 95 0 180 31 221
57 74 151 95 223 50z"/>
<path d="M4137 5153 c-4 -3 -7 -104 -7 -223 0 -194 2 -222 19 -261 52 -117
215 -142 307 -48 49 50 64 50 64 -1 0 -44 14 -56 53 -47 l22 6 0 285 0 286
-26 5 c-14 3 -36 2 -49 -3 l-24 -9 3 -200 3 -200 -29 -28 c-100 -95 -179 -100
-236 -13 -15 24 -17 54 -17 237 0 181 -2 210 -16 215 -21 8 -59 8 -67 -1z"/>
<path d="M4808 5153 c-15 -4 -17 -31 -17 -288 l-1 -285 24 -6 c13 -3 35 -4 47
-2 l24 3 0 196 c1 226 2 228 90 284 61 40 80 42 130 18 26 -12 42 -30 56 -63
18 -40 20 -64 18 -233 -1 -114 3 -193 9 -199 5 -5 25 -8 43 -6 l34 3 0 215
c-1 238 -6 266 -64 325 -65 67 -197 59 -272 -16 -23 -23 -43 -38 -46 -35 -4 3
-6 23 -5 43 2 48 -17 60 -70 46z"/>
</g>
</svg>
