<svg xmlns="http://www.w3.org/2000/svg" viewBox="0 0 487.32 375.4"><defs><style>.cls-1{opacity:0.18;}.cls-2{fill:#fff;stroke:#999;stroke-miterlimit:10;stroke-width:11px;}</style></defs><g id="Layer_2" data-name="Layer 2"><g id="Layer_2-2" data-name="Layer 2"><g class="cls-1"><path class="cls-2" d="M46.15,230.22c-22.64-.31-40.54-19-40.65-42.24-.11-23.69,17.63-42.72,40.68-42.76,93.29-.16,194.57-.08,287.86-.09h7.36c.06-2.58-2-3.44-3.23-4.73q-29.1-30.57-58.3-61.05C268.08,67,264,52.37,268.66,35.89,277.37,4.81,314-4.82,336.47,18.26,364,46.48,391,75.21,418.28,103.72q25.47,26.69,50.92,53.39c16.7,17.58,16.88,42.73.2,60.32q-65.38,69-131,137.76c-16.87,17.72-39.87,19.6-56.88,4.73-17.18-15-19.77-42.12-4.85-59.86,9.82-11.68,20.83-22.35,31.37-33.43,11.24-11.82,22.55-23.57,34.81-36.38Z"/></g></g></g></svg>