<svg xmlns="http://www.w3.org/2000/svg" viewBox="0 0 304.45 408.48"><defs><style>.cls-1{opacity:0.2;}.cls-2{fill:#fff;}</style></defs><g id="Layer_2" data-name="Layer 2"><g id="Layer_2-2" data-name="Layer 2"><g class="cls-1"><path class="cls-2" d="M35.73,388.78a20.56,20.56,0,0,0,20.54,19.7H248.18a20.56,20.56,0,0,0,20.54-19.7L282.43,99.47H22ZM195.64,171.33A8.35,8.35,0,0,1,204,163h13.35a8.35,8.35,0,0,1,8.35,8.35V336.62a8.35,8.35,0,0,1-8.35,8.35H204a8.35,8.35,0,0,1-8.35-8.35Zm-58.44,0a8.35,8.35,0,0,1,8.35-8.35H158.9a8.35,8.35,0,0,1,8.35,8.35V336.62A8.35,8.35,0,0,1,158.9,345H145.55a8.35,8.35,0,0,1-8.35-8.35V171.33Zm-58.44,0A8.35,8.35,0,0,1,87.11,163h13.35a8.35,8.35,0,0,1,8.35,8.35V336.62a8.35,8.35,0,0,1-8.35,8.35H87.11a8.35,8.35,0,0,1-8.35-8.35Z"/><path class="cls-2" d="M291.55,21H203V4.3A4.31,4.31,0,0,0,198.71,0h-93a4.3,4.3,0,0,0-4.3,4.3V21H12.9A12.91,12.91,0,0,0,0,33.94V74.47H304.45V33.94A12.9,12.9,0,0,0,291.55,21Z"/></g></g></g></svg>