<svg xmlns="http://www.w3.org/2000/svg" viewBox="0 0 489.13 395.33"><defs><style>.cls-1{fill:#fff;opacity:0.6;}</style></defs><g id="Layer_2" data-name="Layer 2"><g id="Layer_2-2" data-name="Layer 2"><path class="cls-1" d="M480.34,167.65a173.76,173.76,0,0,0-38.69-45.52c-58.78-49.4-127-72.26-203.45-71A298.64,298.64,0,0,0,138,69.86L68,0,41.87,25.94l60.07,60.18a327.2,327.2,0,0,0-39.36,24.76c-21.76,15.92-40.64,34.68-54.29,58.3-11,19-11.07,37.83-.14,56.93a173.17,173.17,0,0,0,39.27,46.41c57,48,123.19,71.1,189.4,72.25,38.33,0,73.93-5.72,106.63-16.7l67.12,67.26,27.13-26.25L381,312.52a292.87,292.87,0,0,0,35.22-20.7c25.19-17.28,47.31-37.66,63.5-64C492.09,207.69,492.21,188,480.34,167.65ZM247.23,317.17c-67.43-.56-119.52-53-118.91-119.8a123.55,123.55,0,0,1,19.13-65.66l29.6,29.66A77,77,0,0,0,168.11,198c.2,42.88,33.83,76.26,76.78,76.21a77,77,0,0,0,36-8.86l31.74,31.79C293.43,309.88,270.76,317.37,247.23,317.17Zm61.37-77a76.27,76.27,0,0,0,12.56-42.71c-.26-42.94-33.86-76.29-76.78-76.19a76.79,76.79,0,0,0-42.27,12.58l-30-29.91A114.11,114.11,0,0,1,245,78.48c67.11.61,120.51,54.79,121.86,120.14.56,27.16-9.62,52.87-26.44,73.37Z"/></g></g></svg>