<svg xmlns="http://www.w3.org/2000/svg" viewBox="0 0 487.32 375.4"><defs><style>.cls-1{opacity:0.18;}.cls-2{fill:#fff;stroke:#999;stroke-miterlimit:10;stroke-width:11px;}</style></defs><g id="Layer_2" data-name="Layer 2"><g id="Layer_2-2" data-name="Layer 2"><g class="cls-1"><path class="cls-2" d="M441.17,230.22c22.64-.31,40.54-19,40.65-42.24.11-23.69-17.63-42.72-40.68-42.76-93.29-.16-194.57-.08-287.86-.09h-7.36c-.07-2.58,2-3.44,3.23-4.73q29.1-30.57,58.3-61.05c11.79-12.38,15.82-27,11.21-43.46C210,4.81,173.37-4.82,150.84,18.26,123.31,46.48,96.28,75.21,69,103.72q-25.49,26.69-50.92,53.39c-16.7,17.58-16.88,42.73-.2,60.32q65.38,69,131,137.76c16.87,17.72,39.87,19.6,56.88,4.73,17.18-15,19.77-42.12,4.85-59.86-9.82-11.68-20.83-22.35-31.37-33.43-11.24-11.82-22.55-23.57-34.81-36.38Z"/></g></g></g></svg>