<svg xmlns="http://www.w3.org/2000/svg" viewBox="0 0 489.13 293.66"><defs><style>.cls-1{fill:#fff;}</style></defs><g id="Layer_2" data-name="Layer 2"><g id="Layer_2-2" data-name="Layer 2"><path class="cls-1" d="M236.82,293.66c-66.21-1.15-132.42-24.24-189.4-72.24A173.22,173.22,0,0,1,8.15,175c-10.93-19.09-10.85-37.9.14-56.93C21.94,94.46,40.82,75.69,62.58,59.78,114.83,21.56,173.34,1.14,238.2.05c76.43-1.28,144.67,21.58,203.45,71a173.76,173.76,0,0,1,38.69,45.52c11.87,20.32,11.75,40-.58,60.14-16.19,26.37-38.31,46.75-63.5,64C366,275.19,305.82,293.64,236.82,293.66ZM245,27.37c-64.91-.24-116.1,51.9-116.7,118.89C127.71,213,179.8,265.51,247.23,266.07c63.62.54,121-55.09,119.65-118.56C365.53,82.17,312.13,28,245,27.37Z"/><path class="cls-1" d="M244.38,70.21c42.92-.1,76.52,33.24,76.79,76.19a75.83,75.83,0,0,1-76.28,76.73c-42.95,0-76.58-33.34-76.78-76.22S201.57,70.31,244.38,70.21Z"/></g></g></svg>