<svg xmlns="http://www.w3.org/2000/svg" viewBox="0 0 352 352"><defs><style>.cls-1{fill:#76b155;}.cls-2{fill:#fff;}</style></defs><g id="Layer_2" data-name="Layer 2"><g id="Layer_2-2" data-name="Layer 2"><rect class="cls-1" width="352" height="352" rx="29.85"/><path class="cls-2" d="M288.05,97a23.79,23.79,0,0,1-3.59,18.69q-49.26,74.83-98.64,149.59c-8,12.08-22.77,15-35,7.09Q113.27,248,76.06,223A25,25,0,0,1,69,188c7.69-11.57,22.89-14.8,35.05-7q24.72,15.85,49,32.36c3.71,2.52,5.21,2.06,7.61-1.61,26.74-40.88,53.7-81.62,80.54-122.44,5.11-7.77,11.89-12.54,21.43-12.76A24.8,24.8,0,0,1,288.05,97Z"/></g></g></svg>