<svg xmlns="http://www.w3.org/2000/svg" xmlns:xlink="http://www.w3.org/1999/xlink" viewBox="0 0 968.58 214.58"><defs><style>.cls-1{fill:url(#linear-gradient);}.cls-2{fill:#fff;}</style><linearGradient id="linear-gradient" x1="3.06" y1="206.57" x2="204.56" y2="5.07" gradientUnits="userSpaceOnUse"><stop offset="0" stop-color="#6cccdc"/><stop offset="1" stop-color="#161563"/></linearGradient></defs><g id="Layer_2" data-name="Layer 2"><g id="Layer_2-2" data-name="Layer 2"><path class="cls-1" d="M0,13.89V197.75a13.89,13.89,0,0,0,13.89,13.9H193.73a13.9,13.9,0,0,0,13.9-13.9V13.89A13.89,13.89,0,0,0,193.73,0H13.89A13.89,13.89,0,0,0,0,13.89Zm158.05,108L65.6,168.07a17.91,17.91,0,0,1-25.93-16h0A1.71,1.71,0,0,1,41,150.38a6.36,6.36,0,0,0,5-6.22V117.5H67.68a5.88,5.88,0,0,0,5.88-5.88h0a5.87,5.87,0,0,0-5.88-5.87H46V84.36h29.1A5.87,5.87,0,0,0,81,78.48v-.34a5.87,5.87,0,0,0-5.87-5.88H39.67V59.59a17.92,17.92,0,0,1,25.93-16L158.05,89.8A17.91,17.91,0,0,1,158.05,121.84Z"/><path class="cls-2" d="M304.82,211.65H274.1V95.32h-21V70.6h21v-7q0-20.67,10-33.24t40.64-12.56q4.47,0,11.31.28v25q-6-.42-8.24-.42-11.73,0-16.48,3.15t-5.65,7.4q-.92,4.26-.91,17.38H336.1V95.32H304.82Z"/><path class="cls-2" d="M389.59,54.13H357.75V21h31.84Zm0,157.52H357.75V70.6h31.84Z"/><path class="cls-2" d="M459.55,211.65H427.71V21h31.84Z"/><path class="cls-2" d="M708.41,211.65H675V123.81q0-27.37-24.3-27.37-14.1,0-22.55,10.33t-8.45,30.87v74H585.94V123.81Q585.94,96,563.17,96q-13.81,0-23.25,11.17t-9.42,30.45v74H497.68V70.6h30.86v30q15.08-33,47.06-33,31.14,0,40.5,33,17-33,47.06-33,20.39,0,32.82,12.71t12.43,31.56Z"/><path class="cls-2" d="M836.33,166.68l28.77,3.91a60.19,60.19,0,0,1-21.79,31.56q-16.2,12.43-40.64,12.43-29.32,0-47.2-19.69T737.6,141.55q0-32,18-52.93t48.88-21q30.16,0,46.64,20.67t16.48,53.07l-.14,3.63H770.69q0,14.39,2.73,23a31,31,0,0,0,10.82,15.08q8.1,6.43,20.25,6.43Q828.09,189.59,836.33,166.68Zm-2-42.17q-.14-15.23-9.14-24.86A30.88,30.88,0,0,0,781,99q-8.81,9-10.34,25.49Z"/><path class="cls-2" d="M928.5,211.65H896.66V70.6h28.77v33.66q6.14-19.7,16.89-28.77t22.07-9.08c1,0,2.42,0,4.19.14v34.22q-24.3,0-32.19,15.5t-7.89,30Z"/></g></g></svg>